<svg xmlns="http://www.w3.org/2000/svg" class="graphdiagram" viewBox="-3232.956165893157 -2045.988782044962 6510.2906414642475 3251.6824001781533"><g class="layer relationships"><g class="related-pair"><g class="relationship" transform="translate(-234.99468811035155,121.69860456466674) rotate(0)"><path class="relationship" d="M 147.4586228398647,-18.954189449218642 L 148.2646919259381,-10.994902255727208 A 1186.7131057067195 1186.7131057067195 0 0 1 373.90468157519666,-12.284504117179168 L 372.83212179065583,-0.3325329195655371 L 406.13412469701325,-13.408335090941595 L 375.69228121609797,-32.204456113201886 L 374.61972143155714,-20.252484915588255 A 1194.7131057067195 1194.7131057067195 0 0 0 147.4586228398647,-18.954189449218642" fill="rgb(0, 0, 0)" stroke="rgb(51, 51, 51)" stroke-width="0px"/></g><g class="relationship" transform="translate(320.5539840316772,121.69860456466674) rotate(180)"><path class="relationship" d="M 148.8663728575642,-18.955038125587258 L 149.66496077139314,-10.994996835249228 A 1192.1315566474307 1192.1315566474307 0 0 1 375.2968517960221,-12.171249956508548 L 374.22352234180914,-0.21934785338207874 L 407.52636722243034,-13.293005446316135 L 377.0857342197104,-32.09108679505266 L 376.0124047654974,-20.139184691926197 A 1200.1315566474307 1200.1315566474307 0 0 0 148.8663728575642,-18.955038125587258" fill="rgb(0, 0, 0)" stroke="rgb(51, 51, 51)" stroke-width="0px"/></g></g><g class="related-pair"><g class="relationship" transform="translate(-1912.2478076171874,-436.3354681396484) rotate(17.442379350096544)"><path class="relationship" d="M 108.34873742350791 4 L 469.55474404275253 4 L 469.55474404275253 16 L 501.55474404275253 0 L 469.55474404275253 -16 L 469.55474404275253 -4 L 108.34873742350791 -4 Z" fill="rgb(0, 0, 0)" stroke="rgb(51, 51, 51)" stroke-width="0px"/></g></g><g class="related-pair"><g class="relationship" transform="translate(-1274.8588366699212,-236.0720016479492) rotate(18.98604205165838)"><path class="relationship" d="M 165.5198925117095,-18.963520135698364 L 166.2394032012993,-10.995941810537953 A 4240.498528704891 4240.498528704891 0 0 1 919.4164802495799,-11.851336022283453 L 918.3643636497299,0.10245210785839731 L 951.6439541299081,-13.03028779939751 L 921.1700079159965,-31.774316239186536 L 920.1178913161465,-19.820528109044687 A 4248.498528704891 4248.498528704891 0 0 0 165.5198925117095,-18.963520135698364" fill="rgb(0, 0, 0)" stroke="rgb(51, 51, 51)" stroke-width="0px"/></g><g class="relationship" transform="translate(-234.99468811035155,121.69860456466674) rotate(-161.0139579483416)"><path class="relationship" d="M 147.4586228398647,-18.954189449218642 L 148.2646919259381,-10.994902255727208 A 3907.333583799892 3907.333583799892 0 0 1 901.6096748079916,-14.292783177598782 L 900.5051444458638,-2.3437241067288923 L 933.8420091176872,-15.33038856888153 L 903.4505587448712,-34.2078816290486 L 902.3460283827434,-22.25882255817871 A 3915.333583799892 3915.333583799892 0 0 0 147.4586228398647,-18.954189449218642" fill="rgb(0, 0, 0)" stroke="rgb(51, 51, 51)" stroke-width="0px"/><text class="type" text-anchor="middle" baseline-shift="30%" alignment-baseline="alphabetic" transform="rotate(180)" x="-541.9622932856381" y="34.879716775935776" font-size="50px" font-family="&quot;Gill Sans&quot;, &quot;Gill Sans MT&quot;, Calibri, sans-serif">previous support</text></g></g><g class="related-pair"><g class="relationship" transform="translate(1956.1315710449217,-541.5472888183593) rotate(160.01645665138457)"><path class="relationship" d="M 108.84328367370718 4 L 693.7779657155774 4 L 693.7779657155774 16 L 725.7779657155774 0 L 693.7779657155774 -16 L 693.7779657155774 -4 L 108.84328367370718 -4 Z" fill="rgb(0, 0, 0)" stroke="rgb(51, 51, 51)" stroke-width="0px"/></g></g><g class="related-pair"><g class="relationship" transform="translate(1116.09447265625,-236.0720016479492) rotate(155.78558905379256)"><path class="relationship" d="M 167.0520403410289,-18.964177820265117 L 167.76504962382322,-10.99601506071702 A 2979.8377502490102 2979.8377502490102 0 0 1 690.6062113479045,-11.728914354909408 L 689.5702099834986,0.22628121743273155 L 722.8320666622856,-12.951309240607655 L 692.3328802885811,-31.654240308812973 L 691.2968789241752,-19.699044736470835 A 2987.8377502490102 2987.8377502490102 0 0 0 167.0520403410289,-18.964177820265117" fill="rgb(0, 0, 0)" stroke="rgb(51, 51, 51)" stroke-width="0px"/></g><g class="relationship" transform="translate(320.5539840316772,121.69860456466674) rotate(-24.214410946207458)"><path class="relationship" d="M 148.8663728575642,-18.955038125587258 L 149.66496077139314,-10.994996835249228 A 2769.2100899199363 2769.2100899199363 0 0 1 672.6479261303703,-13.829355684003117 L 671.5795315610733,-1.8770114350996092 L 704.8769756505452,-14.964418248845705 L 674.4285837458651,-33.74992943217563 L 673.3601891765682,-21.797585183272123 A 2777.2100899199363 2777.2100899199363 0 0 0 148.8663728575642,-18.955038125587258" fill="rgb(0, 0, 0)" stroke="rgb(51, 51, 51)" stroke-width="0px"/><text class="type" text-anchor="middle" baseline-shift="30%" alignment-baseline="alphabetic" x="426.09717435430133" y="-28.82675458226322" font-size="50px" font-family="&quot;Gill Sans&quot;, &quot;Gill Sans MT&quot;, Calibri, sans-serif">previous support</text></g></g><g class="related-pair"><g class="relationship" transform="translate(1116.09447265625,-236.0720016479492) rotate(114.37515539015054)"><path class="relationship" d="M 168.0774351972905 4 L 830.999540767775 4 L 830.999540767775 16 L 862.999540767775 0 L 830.999540767775 -16 L 830.999540767775 -4 L 168.0774351972905 -4 Z" fill="rgb(0, 0, 0)" stroke="rgb(51, 51, 51)" stroke-width="0px"/></g></g><g class="related-pair"><g class="relationship" transform="translate(-1274.8588366699212,-236.0720016479492) rotate(52.78130222777522)"><path class="relationship" d="M 166.55464542613302 4 L 998.4269980213608 4 L 998.4269980213608 16 L 1030.4269980213608 0 L 998.4269980213608 -16 L 998.4269980213608 -4 L 166.55464542613302 -4 Z" fill="rgb(0, 0, 0)" stroke="rgb(51, 51, 51)" stroke-width="0px"/></g></g><g class="related-pair"><g class="relationship" transform="translate(-1912.2478076171874,-436.3354681396484) rotate(68.27458138947354)"><path class="relationship" d="M 108.34873742350791 4 L 530.1499423289745 4 L 530.1499423289745 16 L 562.1499423289745 0 L 530.1499423289745 -16 L 530.1499423289745 -4 L 108.34873742350791 -4 Z" fill="rgb(0, 0, 0)" stroke="rgb(51, 51, 51)" stroke-width="0px"/></g></g><g class="related-pair"><g class="relationship" transform="translate(1956.1315710449217,-541.5472888183593) rotate(113.74731951102561)"><path class="relationship" d="M 108.84328367370718 4 L 907.2664427204497 4 L 907.2664427204497 16 L 939.2664427204497 0 L 907.2664427204497 -16 L 907.2664427204497 -4 L 108.84328367370718 -4 Z" fill="rgb(0, 0, 0)" stroke="rgb(51, 51, 51)" stroke-width="0px"/></g></g><g class="related-pair"><g class="relationship" transform="translate(-1912.2478076171874,-436.3354681396484) rotate(-30.90555437900345)"><path class="relationship" d="M 108.34873742350791 4 L 1469.7388593843561 4 L 1469.7388593843561 16 L 1501.7388593843561 0 L 1469.7388593843561 -16 L 1469.7388593843561 -4 L 108.34873742350791 -4 Z" fill="rgb(0, 0, 0)" stroke="rgb(51, 51, 51)" stroke-width="0px"/></g></g><g class="related-pair"><g class="relationship" transform="translate(1956.1315710449217,-541.5472888183593) rotate(-153.07716200702177)"><path class="relationship" d="M 108.84328367370718 4 L 1126.538267508469 4 L 1126.538267508469 16 L 1158.538267508469 0 L 1126.538267508469 -16 L 1126.538267508469 -4 L 108.84328367370718 -4 Z" fill="rgb(0, 0, 0)" stroke="rgb(51, 51, 51)" stroke-width="0px"/></g></g><g class="related-pair"><g class="relationship" transform="translate(-1912.2478076171874,-436.3354681396484) rotate(-68.33282872642397)"><path class="relationship" d="M 108.34873742350791 4 L 763.222207351876 4 L 763.222207351876 16 L 795.222207351876 0 L 763.222207351876 -16 L 763.222207351876 -4 L 108.34873742350791 -4 Z" fill="rgb(0, 0, 0)" stroke="rgb(51, 51, 51)" stroke-width="0px"/><text class="type" text-anchor="middle" baseline-shift="30%" alignment-baseline="alphabetic" x="435.7854723876919" y="0" font-size="50px" font-family="&quot;Gill Sans&quot;, &quot;Gill Sans MT&quot;, Calibri, sans-serif">money support</text></g></g><g class="related-pair"><g class="relationship" transform="translate(-1578.003115234375,-1277.658145751953) rotate(-20.756396487736957)"><path class="relationship" d="M 110.06413533248075 4 L 1643.3077681752884 4 L 1643.3077681752884 16 L 1675.3077681752884 0 L 1643.3077681752884 -16 L 1643.3077681752884 -4 L 110.06413533248075 -4 Z" fill="rgb(0, 0, 0)" stroke="rgb(51, 51, 51)" stroke-width="0px"/></g></g><g class="related-pair"><g class="relationship" transform="translate(116.71737686157226,-1919.9466687011718) rotate(134.15082530782541)"><path class="relationship" d="M 135.78506913689014,-18.946129663395897 L 136.6589649843481,-10.99400378110532 A 2797.564846093587 2797.564846093587 0 0 1 727.3607230190485,-13.169745050176143 L 726.1377842020269,-1.2322235046533159 L 759.60176007945,-13.887748719959426 L 729.3989543807512,-33.06561429271419 L 728.1760155637296,-21.128092747191364 A 2805.564846093587 2805.564846093587 0 0 0 135.78506913689014,-18.946129663395897" fill="rgb(0, 0, 0)" stroke="rgb(51, 51, 51)" stroke-width="0px"/><text class="type" text-anchor="middle" baseline-shift="30%" alignment-baseline="alphabetic" transform="rotate(180)" x="-442.2565027338012" y="31.735372373808787" font-size="50px" font-family="&quot;Gill Sans&quot;, &quot;Gill Sans MT&quot;, Calibri, sans-serif">fight for power</text></g><g class="relationship" transform="translate(-506.8092596435547,-1277.658145751953) rotate(-45.849174692174586)"><path class="relationship" d="M 135.00842091740554,-18.945519983299583 L 135.8872320041262,-10.993935796871266 A 2786.5537692737485 2786.5537692737485 0 0 1 726.5981383668452,-13.286000238126796 L 725.3725207617806,-1.3487534246376978 L 758.8393357378377,-13.996768895784184 L 728.6408343752862,-33.18141159394196 L 727.4152167702216,-21.244164780452863 A 2794.5537692737485 2794.5537692737485 0 0 0 135.00842091740554,-18.945519983299583" fill="rgb(0, 0, 0)" stroke="rgb(51, 51, 51)" stroke-width="0px"/><text class="type" text-anchor="middle" baseline-shift="30%" alignment-baseline="alphabetic" x="441.9940252767559" y="-31.85809427195045" font-size="50px" font-family="&quot;Gill Sans&quot;, &quot;Gill Sans MT&quot;, Calibri, sans-serif">fight for power</text></g></g><g class="related-pair"><g class="relationship" transform="translate(802.0887255859375,-1127.6051525878906) rotate(-130.85963738491603)"><path class="relationship" d="M 135.78731318642537 4 L 878.5928248903966 4 L 878.5928248903966 16 L 910.5928248903966 0 L 878.5928248903966 -16 L 878.5928248903966 -4 L 135.78731318642537 -4 Z" fill="rgb(0, 0, 0)" stroke="rgb(51, 51, 51)" stroke-width="0px"/><text class="type" text-anchor="middle" baseline-shift="30%" alignment-baseline="alphabetic" transform="rotate(180)" x="-507.19006903841097" y="0" font-size="50px" font-family="&quot;Gill Sans&quot;, &quot;Gill Sans MT&quot;, Calibri, sans-serif">try to unite</text></g></g><g class="related-pair"><g class="relationship" transform="translate(28.8721808719635,-361.4937049102783) rotate(58.88247894461674)"><path class="relationship" d="M 194.10789839152176 4 L 382.39010190083525 4 L 382.39010190083525 16 L 414.39010190083525 0 L 382.39010190083525 -16 L 382.39010190083525 -4 L 194.10789839152176 -4 Z" fill="rgb(0, 0, 0)" stroke="rgb(51, 51, 51)" stroke-width="0px"/><text class="type" text-anchor="middle" baseline-shift="30%" alignment-baseline="alphabetic" x="288.2490001461785" y="0" font-size="50px" font-family="&quot;Gill Sans&quot;, &quot;Gill Sans MT&quot;, Calibri, sans-serif">support</text></g></g><g class="related-pair"><g class="relationship" transform="translate(28.8721808719635,-361.4937049102783) rotate(118.63854727702214)"><path class="relationship" d="M 194.10789839152176 4 L 369.927678622015 4 L 369.927678622015 16 L 401.927678622015 0 L 369.927678622015 -16 L 369.927678622015 -4 L 194.10789839152176 -4 Z" fill="rgb(0, 0, 0)" stroke="rgb(51, 51, 51)" stroke-width="0px"/><text class="type" text-anchor="middle" baseline-shift="30%" alignment-baseline="alphabetic" transform="rotate(180)" x="-282.0177885067684" y="0" font-size="50px" font-family="&quot;Gill Sans&quot;, &quot;Gill Sans MT&quot;, Calibri, sans-serif">support</text></g></g><g class="related-pair"><g class="relationship" transform="translate(-1912.2478076171874,-436.3354681396484) rotate(2.2080006548775115)"><path class="relationship" d="M 108.34873742350791 4 L 1716.454352666447 4 L 1716.454352666447 16 L 1748.454352666447 0 L 1716.454352666447 -16 L 1716.454352666447 -4 L 108.34873742350791 -4 Z" fill="rgb(0, 0, 0)" stroke="rgb(51, 51, 51)" stroke-width="0px"/><text class="type" text-anchor="middle" baseline-shift="30%" alignment-baseline="alphabetic" x="912.4015450449775" y="0" font-size="50px" font-family="&quot;Gill Sans&quot;, &quot;Gill Sans MT&quot;, Calibri, sans-serif">wish?</text></g></g><g class="related-pair"><g class="relationship" transform="translate(1956.1315710449217,-541.5472888183593) rotate(174.66265281473926)"><path class="relationship" d="M 108.84328367370718 4 L 1709.5439427431352 4 L 1709.5439427431352 16 L 1741.5439427431352 0 L 1709.5439427431352 -16 L 1709.5439427431352 -4 L 108.84328367370718 -4 Z" fill="rgb(0, 0, 0)" stroke="rgb(51, 51, 51)" stroke-width="0px"/><text class="type" text-anchor="middle" baseline-shift="30%" alignment-baseline="alphabetic" transform="rotate(180)" x="-909.1936132084212" y="0" font-size="50px" font-family="&quot;Gill Sans&quot;, &quot;Gill Sans MT&quot;, Calibri, sans-serif">wish?</text></g></g><g class="related-pair"><g class="relationship" transform="translate(802.0887255859375,-1127.6051525878906) rotate(-173.46012158499846)"><path class="relationship" d="M 134.51868443795584,-18.945130231012477 L 135.40062316590863,-10.993892334927551 A 4713.127733244539 4713.127733244539 0 0 1 1149.7081700348153,-13.685105306654114 L 1148.4485700235643,-1.751396419151595 L 1181.951260405239,-14.304074905819093 L 1151.8075033869002,-33.57462011915831 L 1150.5479033756492,-21.640911231655792 A 4721.127733244539 4721.127733244539 0 0 0 134.51868443795584,-18.945130231012477" fill="rgb(0, 0, 0)" stroke="rgb(51, 51, 51)" stroke-width="0px"/><text class="type" text-anchor="middle" baseline-shift="30%" alignment-baseline="alphabetic" transform="rotate(180)" x="-654.9868578829837" y="43.721645371613704" font-size="50px" font-family="&quot;Gill Sans&quot;, &quot;Gill Sans MT&quot;, Calibri, sans-serif">week pounch</text></g><g class="relationship" transform="translate(-506.8092596435547,-1277.658145751953) rotate(6.539878415001527)"><path class="relationship" d="M 135.00842091740554,-18.945519983299583 L 135.8872320041262,-10.993935796871266 A 4726.491238708461 4726.491238708461 0 0 1 1150.1877224897335,-13.59733240977642 L 1148.930750619274,-1.663346415278454 L 1182.4306757652146,-14.22340275338384 L 1152.2826756071659,-33.48730906727303 L 1151.0257037367064,-21.553323072775065 A 4734.491238708461 4734.491238708461 0 0 0 135.00842091740554,-18.945519983299583" fill="rgb(0, 0, 0)" stroke="rgb(51, 51, 51)" stroke-width="0px"/><text class="type" text-anchor="middle" baseline-shift="30%" alignment-baseline="alphabetic" x="655.0988447372638" y="-43.59855062956103" font-size="50px" font-family="&quot;Gill Sans&quot;, &quot;Gill Sans MT&quot;, Calibri, sans-serif">diss</text></g></g><g class="related-pair"><g class="relationship" transform="translate(-1274.8588366699212,-236.0720016479492) rotate(-53.595508453966275)"><path class="relationship" d="M 166.55464542613302 4 L 1125.8688109072664 4 L 1125.8688109072664 16 L 1157.8688109072664 0 L 1125.8688109072664 -16 L 1125.8688109072664 -4 L 166.55464542613302 -4 Z" fill="rgb(0, 0, 0)" stroke="rgb(51, 51, 51)" stroke-width="0px"/><text class="type" text-anchor="middle" baseline-shift="30%" alignment-baseline="alphabetic" x="646.2117281666997" y="0" font-size="50px" font-family="&quot;Gill Sans&quot;, &quot;Gill Sans MT&quot;, Calibri, sans-serif">support</text></g></g><g class="related-pair"><g class="relationship" transform="translate(1116.09447265625,-236.0720016479492) rotate(-109.4027080400511)"><path class="relationship" d="M 168.0774351972905 4 L 777.4274605121691 4 L 777.4274605121691 16 L 809.4274605121691 0 L 777.4274605121691 -16 L 777.4274605121691 -4 L 168.0774351972905 -4 Z" fill="rgb(0, 0, 0)" stroke="rgb(51, 51, 51)" stroke-width="0px"/><text class="type" text-anchor="middle" baseline-shift="30%" alignment-baseline="alphabetic" transform="rotate(180)" x="-472.7524478547298" y="0" font-size="50px" font-family="&quot;Gill Sans&quot;, &quot;Gill Sans MT&quot;, Calibri, sans-serif">heat</text></g></g><g class="related-pair"><g class="relationship" transform="translate(-1578.003115234375,-1277.658145751953) rotate(29.689747407676396)"><path class="relationship" d="M 110.06413533248075 4 L 1623.5962671169987 4 L 1623.5962671169987 16 L 1655.5962671169987 0 L 1623.5962671169987 -16 L 1623.5962671169987 -4 L 110.06413533248075 -4 Z" fill="rgb(0, 0, 0)" stroke="rgb(51, 51, 51)" stroke-width="0px"/><text class="type" text-anchor="middle" baseline-shift="30%" alignment-baseline="alphabetic" x="866.8302012247398" y="0" font-size="50px" font-family="&quot;Gill Sans&quot;, &quot;Gill Sans MT&quot;, Calibri, sans-serif">wish</text></g></g><g class="related-pair"><g class="relationship" transform="translate(320.5539840316772,-790.5193164825439) rotate(8.655273495303495)"><path class="relationship" d="M 169.9789297395893 4 L 1513.5753796939675 4 L 1513.5753796939675 16 L 1545.5753796939675 0 L 1513.5753796939675 -16 L 1513.5753796939675 -4 L 169.9789297395893 -4 Z" fill="rgb(0, 0, 0)" stroke="rgb(51, 51, 51)" stroke-width="0px"/><text class="type" text-anchor="middle" baseline-shift="30%" alignment-baseline="alphabetic" x="841.7771547167783" y="0" font-size="50px" font-family="&quot;Gill Sans&quot;, &quot;Gill Sans MT&quot;, Calibri, sans-serif">money</text></g></g><g class="related-pair"><g class="relationship" transform="translate(320.5539840316772,-790.5193164825439) rotate(-165.60928058342205)"><path class="relationship" d="M 169.9789297395893 4 L 1817.9928276549467 4 L 1817.9928276549467 16 L 1849.9928276549467 0 L 1817.9928276549467 -16 L 1817.9928276549467 -4 L 169.9789297395893 -4 Z" fill="rgb(0, 0, 0)" stroke="rgb(51, 51, 51)" stroke-width="0px"/><text class="type" text-anchor="middle" baseline-shift="30%" alignment-baseline="alphabetic" transform="rotate(180)" x="-993.9858786972679" y="0" font-size="50px" font-family="&quot;Gill Sans&quot;, &quot;Gill Sans MT&quot;, Calibri, sans-serif">money</text></g></g><g class="related-pair"><g class="relationship" transform="translate(320.5539840316772,-790.5193164825439) rotate(170.986412961517)"><path class="relationship" d="M 169.9789297395893 4 L 2120.37018345484 4 L 2120.37018345484 16 L 2152.37018345484 0 L 2120.37018345484 -16 L 2120.37018345484 -4 L 169.9789297395893 -4 Z" fill="rgb(0, 0, 0)" stroke="rgb(51, 51, 51)" stroke-width="0px"/><text class="type" text-anchor="middle" baseline-shift="30%" alignment-baseline="alphabetic" transform="rotate(180)" x="-1145.1745565972146" y="0" font-size="50px" font-family="&quot;Gill Sans&quot;, &quot;Gill Sans MT&quot;, Calibri, sans-serif">money</text></g></g><g class="related-pair"><g class="relationship" transform="translate(320.5539840316772,-790.5193164825439) rotate(124.21062318795379)"><path class="relationship" d="M 169.9789297395893 4 L 292.68035290129467 4 L 292.68035290129467 16 L 324.68035290129467 0 L 292.68035290129467 -16 L 292.68035290129467 -4 L 169.9789297395893 -4 Z" fill="rgb(0, 0, 0)" stroke="rgb(51, 51, 51)" stroke-width="0px"/><text class="type" text-anchor="middle" baseline-shift="30%" alignment-baseline="alphabetic" transform="rotate(180)" x="-231.32964132044197" y="0" font-size="50px" font-family="&quot;Gill Sans&quot;, &quot;Gill Sans MT&quot;, Calibri, sans-serif">support</text></g></g><g class="related-pair"><g class="relationship" transform="translate(-1642.6932275390625,240.1515379333496) rotate(-4.809909408316584)"><path class="relationship" d="M 166.0631727868566 4 L 1232.0554603322926 4 L 1232.0554603322926 16 L 1264.0554603322926 0 L 1232.0554603322926 -16 L 1232.0554603322926 -4 L 166.0631727868566 -4 Z" fill="rgb(0, 0, 0)" stroke="rgb(51, 51, 51)" stroke-width="0px"/><text class="type" text-anchor="middle" baseline-shift="30%" alignment-baseline="alphabetic" x="699.0593165595747" y="0" font-size="50px" font-family="&quot;Gill Sans&quot;, &quot;Gill Sans MT&quot;, Calibri, sans-serif">heat</text></g></g><g class="related-pair"><g class="relationship" transform="translate(1510.3979089355469,471.58808906555174) rotate(-163.613323277302)"><path class="relationship" d="M 167.58575674315057 4 L 1058.2072776205555 4 L 1058.2072776205555 16 L 1090.2072776205555 0 L 1058.2072776205555 -16 L 1058.2072776205555 -4 L 167.58575674315057 -4 Z" fill="rgb(0, 0, 0)" stroke="rgb(51, 51, 51)" stroke-width="0px"/><text class="type" text-anchor="middle" baseline-shift="30%" alignment-baseline="alphabetic" transform="rotate(180)" x="-612.896517181853" y="0" font-size="50px" font-family="&quot;Gill Sans&quot;, &quot;Gill Sans MT&quot;, Calibri, sans-serif">heat</text></g></g><g class="related-pair"><g class="relationship" transform="translate(-1274.8588366699212,-236.0720016479492) rotate(74.7044130398025)"><path class="relationship" d="M 166.55464542613302 4 L 767.3327544087585 4 L 767.3327544087585 16 L 799.3327544087585 0 L 767.3327544087585 -16 L 767.3327544087585 -4 L 166.55464542613302 -4 Z" fill="rgb(0, 0, 0)" stroke="rgb(51, 51, 51)" stroke-width="0px"/></g></g><g class="related-pair"><g class="relationship" transform="translate(-569.9161260986327,692.0266510772705) rotate(-88.16492431705346)"><path class="relationship" d="M 133.76350866723436,-18.94452103695871 L 134.6503136028345,-10.993824400424579 A 7651.197234739298 7651.197234739298 0 0 1 1802.9637454718586,-14.061098566219334 L 1801.6774001230267,-2.130242953836019 L 1835.2081422211581,-14.607796173461947 L 1805.1076543865786,-33.94585792019153 L 1803.8213090377467,-22.01500230780821 A 7659.197234739298 7659.197234739298 0 0 0 133.76350866723436,-18.94452103695871" fill="rgb(0, 0, 0)" stroke="rgb(51, 51, 51)" stroke-width="0px"/></g><g class="relationship" transform="translate(-506.8092596435547,-1277.658145751953) rotate(91.83507568294657)"><path class="relationship" d="M 135.00842091740554,-18.945519983299583 L 135.8872320041262,-10.993935796871266 A 7711.262288735503 7711.262288735503 0 0 1 1804.180246090681,-13.81134832828895 L 1802.9023227608643,-1.8795876885882805 L 1836.4242489064884,-14.380806328677899 L 1806.3101183070423,-33.6976160611234 L 1805.0321949772256,-21.765855421422728 A 7719.262288735503 7719.262288735503 0 0 0 135.00842091740554,-18.945519983299583" fill="rgb(0, 0, 0)" stroke="rgb(51, 51, 51)" stroke-width="0px"/><text class="type" text-anchor="middle" baseline-shift="30%" alignment-baseline="alphabetic" transform="rotate(180)" x="-982.9800809980956" y="61.6623154685949" font-size="50px" font-family="&quot;Gill Sans&quot;, &quot;Gill Sans MT&quot;, Calibri, sans-serif">retired cadre</text></g></g><g class="related-pair"><g class="relationship" transform="translate(620.0318988800051,-402.4213632631307) rotate(-127.65577048949496)"><path class="relationship" d="M 151.5958218384206 4 L 288.23229287266395 4 L 288.23229287266395 16 L 320.23229287266395 0 L 288.23229287266395 -16 L 288.23229287266395 -4 L 151.5958218384206 -4 Z" fill="rgb(0, 0, 0)" stroke="rgb(51, 51, 51)" stroke-width="0px"/><text class="type" text-anchor="middle" baseline-shift="30%" alignment-baseline="alphabetic" transform="rotate(180)" x="-219.91405735554227" y="0" font-size="50px" font-family="&quot;Gill Sans&quot;, &quot;Gill Sans MT&quot;, Calibri, sans-serif">polls</text></g></g><g class="related-pair"><g class="relationship" transform="translate(347.37359038353054,996.7009592437746) rotate(-78.97251931492117)"><path class="relationship" d="M 219.99265888941667 4 L 1241.8465047848897 4 L 1241.8465047848897 16 L 1273.8465047848897 0 L 1241.8465047848897 -16 L 1241.8465047848897 -4 L 219.99265888941667 -4 Z" fill="rgb(0, 0, 0)" stroke="rgb(51, 51, 51)" stroke-width="0px"/></g></g><g class="related-pair"><g class="relationship" transform="translate(-234.99468811035155,121.69860456466674) rotate(120.42330911698119)"><path class="relationship" d="M 148.6179893132266 4 L 494.35820007994425 4 L 494.35820007994425 16 L 526.3582000799443 0 L 494.35820007994425 -16 L 494.35820007994425 -4 L 148.6179893132266 -4 Z" fill="rgb(0, 0, 0)" stroke="rgb(51, 51, 51)" stroke-width="0px"/><text class="type" text-anchor="middle" baseline-shift="30%" alignment-baseline="alphabetic" transform="rotate(180)" x="-321.48809469658545" y="0" font-size="50px" font-family="&quot;Gill Sans&quot;, &quot;Gill Sans MT&quot;, Calibri, sans-serif">spy</text></g></g><g class="related-pair"><g class="relationship" transform="translate(320.5539840316772,121.69860456466674) rotate(56.67292451972044)"><path class="relationship" d="M 150.01496738029107 4 L 494.6566548419016 4 L 494.6566548419016 16 L 526.6566548419016 0 L 494.6566548419016 -16 L 494.6566548419016 -4 L 150.01496738029107 -4 Z" fill="rgb(0, 0, 0)" stroke="rgb(51, 51, 51)" stroke-width="0px"/><text class="type" text-anchor="middle" baseline-shift="30%" alignment-baseline="alphabetic" x="322.33581111109635" y="0" font-size="50px" font-family="&quot;Gill Sans&quot;, &quot;Gill Sans MT&quot;, Calibri, sans-serif">spy</text></g></g><g class="related-pair"><g class="relationship" transform="translate(1116.09447265625,-236.0720016479492) rotate(86.3384025071031)"><path class="relationship" d="M 168.0774351972905 4 L 784.3277041733973 4 L 784.3277041733973 16 L 816.3277041733973 0 L 784.3277041733973 -16 L 784.3277041733973 -4 L 168.0774351972905 -4 Z" fill="rgb(0, 0, 0)" stroke="rgb(51, 51, 51)" stroke-width="0px"/></g></g></g><g class="layer nodes"><circle class="node node-id-0" r="135.01496738029107" fill="rgb(255, 255, 255)" stroke="rgb(0, 0, 0)" stroke-width="8px" cx="320.5539840316772" cy="121.69860456466674"/><circle class="node node-id-1" r="133.6179893132266" fill="rgb(255, 255, 255)" stroke="rgb(0, 0, 0)" stroke-width="8px" cx="-234.99468811035155" cy="121.69860456466674"/><circle class="node node-id-2" r="93.34873742350791" fill="rgb(255, 255, 255)" stroke="rgb(0, 0, 0)" stroke-width="8px" cx="-1912.2478076171874" cy="-436.3354681396484"/><circle class="node node-id-3" r="93.84328367370718" fill="rgb(255, 255, 255)" stroke="rgb(0, 0, 0)" stroke-width="8px" cx="1956.1315710449217" cy="-541.5472888183593"/><circle class="node node-id-4" r="151.55464542613302" fill="rgb(255, 255, 255)" stroke="rgb(0, 0, 0)" stroke-width="8px" cx="-1274.8588366699212" cy="-236.0720016479492"/><circle class="node node-id-5" r="153.0774351972905" fill="rgb(255, 255, 255)" stroke="rgb(0, 0, 0)" stroke-width="8px" cx="1116.09447265625" cy="-236.0720016479492"/><circle class="node node-id-6" r="140.92312122195955" fill="rgb(255, 255, 255)" stroke="rgb(0, 0, 0)" stroke-width="8px" cx="695.57541015625" cy="692.0266510772705"/><circle class="node node-id-7" r="120.03914665121759" fill="rgb(255, 255, 255)" stroke="rgb(0, 0, 0)" stroke-width="8px" cx="-569.9161260986327" cy="692.0266510772705"/><circle class="node node-id-8" r="151.0631727868566" fill="rgb(255, 255, 255)" stroke="rgb(0, 0, 0)" stroke-width="8px" cx="-1642.6932275390625" cy="240.1515379333496"/><circle class="node node-id-9" r="152.58575674315057" fill="rgb(255, 255, 255)" stroke="rgb(0, 0, 0)" stroke-width="8px" cx="1510.3979089355469" cy="471.58808906555174"/><circle class="node node-id-10" r="121.2725447258139" fill="rgb(255, 255, 255)" stroke="rgb(0, 0, 0)" stroke-width="8px" cx="-506.8092596435547" cy="-1277.658145751953"/><circle class="node node-id-11" r="120.78731318642535" fill="rgb(255, 255, 255)" stroke="rgb(0, 0, 0)" stroke-width="8px" cx="802.0887255859375" cy="-1127.6051525878906"/><circle class="node node-id-12" r="95.06413533248075" fill="rgb(255, 255, 255)" stroke="rgb(0, 0, 0)" stroke-width="8px" cx="-1578.003115234375" cy="-1277.658145751953"/><circle class="node node-id-13" r="122.0421133437902" fill="rgb(255, 255, 255)" stroke="rgb(0, 0, 0)" stroke-width="8px" cx="116.71737686157226" cy="-1919.9466687011718"/><circle class="node node-id-14" r="179.10789839152176" fill="rgb(255, 255, 255)" stroke="rgb(0, 0, 0)" stroke-width="8px" cx="28.8721808719635" cy="-361.4937049102783"/><circle class="node node-id-15" r="154.9789297395893" fill="rgb(255, 255, 255)" stroke="rgb(0, 0, 0)" stroke-width="8px" cx="320.5539840316772" cy="-790.5193164825439"/><circle class="node node-id-16" r="125.28231412696391" fill="rgb(255, 255, 255)" stroke="rgb(0, 0, 0)" stroke-width="8px" cx="-1026.9895495605463" cy="670.2597772979733"/><circle class="node node-id-17" r="136.5958218384206" fill="rgb(255, 255, 255)" stroke="rgb(0, 0, 0)" stroke-width="8px" cx="620.0318988800051" cy="-402.4213632631307"/><circle class="node node-id-18" r="204.99265888941667" fill="rgb(255, 255, 255)" stroke="rgb(0, 0, 0)" stroke-width="8px" cx="347.37359038353054" cy="996.7009592437746"/><circle class="node node-id-19" r="126.65280852332887" fill="rgb(255, 255, 255)" stroke="rgb(0, 0, 0)" stroke-width="8px" cx="1177.2744042968748" cy="719.9529345703122"/><g class="caption"><text class="caption node" text-anchor="middle" alignment-baseline="central" x="320.5539840316772" y="96.69860456466674" fill="rgb(51, 51, 51)" font-size="50px" font-family="&quot;Gill Sans&quot;, &quot;Gill Sans MT&quot;, Calibri, sans-serif">HIT</text><text class="caption node" text-anchor="middle" alignment-baseline="central" x="320.5539840316772" y="146.69860456466674" fill="rgb(51, 51, 51)" font-size="50px" font-family="&quot;Gill Sans&quot;, &quot;Gill Sans MT&quot;, Calibri, sans-serif">unite-nthu</text></g><g class="caption"><text class="caption node" text-anchor="middle" alignment-baseline="central" x="-234.99468811035155" y="96.69860456466674" fill="rgb(51, 51, 51)" font-size="50px" font-family="&quot;Gill Sans&quot;, &quot;Gill Sans MT&quot;, Calibri, sans-serif">HIT</text><text class="caption node" text-anchor="middle" alignment-baseline="central" x="-234.99468811035155" y="146.69860456466674" fill="rgb(51, 51, 51)" font-size="50px" font-family="&quot;Gill Sans&quot;, &quot;Gill Sans MT&quot;, Calibri, sans-serif">unite-nctu</text></g><g class="caption"><text class="caption node" text-anchor="middle" alignment-baseline="central" x="-1912.2478076171874" y="-436.3354681396484" fill="rgb(51, 51, 51)" font-size="50px" font-family="&quot;Gill Sans&quot;, &quot;Gill Sans MT&quot;, Calibri, sans-serif">NCTU</text></g><g class="caption"><text class="caption node" text-anchor="middle" alignment-baseline="central" x="1956.1315710449217" y="-541.5472888183593" fill="rgb(51, 51, 51)" font-size="50px" font-family="&quot;Gill Sans&quot;, &quot;Gill Sans MT&quot;, Calibri, sans-serif">NTHU</text></g><g class="caption"><text class="caption node" text-anchor="middle" alignment-baseline="central" x="-1274.8588366699212" y="-236.0720016479492" fill="rgb(51, 51, 51)" font-size="50px" font-family="&quot;Gill Sans&quot;, &quot;Gill Sans MT&quot;, Calibri, sans-serif">Student-nctu</text></g><g class="caption"><text class="caption node" text-anchor="middle" alignment-baseline="central" x="1116.09447265625" y="-236.0720016479492" fill="rgb(51, 51, 51)" font-size="50px" font-family="&quot;Gill Sans&quot;, &quot;Gill Sans MT&quot;, Calibri, sans-serif">Student-nthu</text></g><g class="caption"><text class="caption node" text-anchor="middle" alignment-baseline="central" x="695.57541015625" y="642.0266510772705" fill="rgb(51, 51, 51)" font-size="50px" font-family="&quot;Gill Sans&quot;, &quot;Gill Sans MT&quot;, Calibri, sans-serif">make</text><text class="caption node" text-anchor="middle" alignment-baseline="central" x="695.57541015625" y="692.0266510772705" fill="rgb(51, 51, 51)" font-size="50px" font-family="&quot;Gill Sans&quot;, &quot;Gill Sans MT&quot;, Calibri, sans-serif">NTHU</text><text class="caption node" text-anchor="middle" alignment-baseline="central" x="695.57541015625" y="742.0266510772705" fill="rgb(51, 51, 51)" font-size="50px" font-family="&quot;Gill Sans&quot;, &quot;Gill Sans MT&quot;, Calibri, sans-serif">great</text></g><g class="caption"><text class="caption node" text-anchor="middle" alignment-baseline="central" x="-569.9161260986327" y="667.0266510772705" fill="rgb(51, 51, 51)" font-size="50px" font-family="&quot;Gill Sans&quot;, &quot;Gill Sans MT&quot;, Calibri, sans-serif">NCTU</text><text class="caption node" text-anchor="middle" alignment-baseline="central" x="-569.9161260986327" y="717.0266510772705" fill="rgb(51, 51, 51)" font-size="50px" font-family="&quot;Gill Sans&quot;, &quot;Gill Sans MT&quot;, Calibri, sans-serif">best</text></g><g class="caption"><text class="caption node" text-anchor="middle" alignment-baseline="central" x="-1642.6932275390625" y="240.1515379333496" fill="rgb(51, 51, 51)" font-size="50px" font-family="&quot;Gill Sans&quot;, &quot;Gill Sans MT&quot;, Calibri, sans-serif">Teacher-nctu</text></g><g class="caption"><text class="caption node" text-anchor="middle" alignment-baseline="central" x="1510.3979089355469" y="471.58808906555174" fill="rgb(51, 51, 51)" font-size="50px" font-family="&quot;Gill Sans&quot;, &quot;Gill Sans MT&quot;, Calibri, sans-serif">Teacher-nthu</text></g><g class="caption"><text class="caption node" text-anchor="middle" alignment-baseline="central" x="-506.8092596435547" y="-1277.658145751953" fill="rgb(51, 51, 51)" font-size="50px" font-family="&quot;Gill Sans&quot;, &quot;Gill Sans MT&quot;, Calibri, sans-serif">NCTUSU</text></g><g class="caption"><text class="caption node" text-anchor="middle" alignment-baseline="central" x="802.0887255859375" y="-1127.6051525878906" fill="rgb(51, 51, 51)" font-size="50px" font-family="&quot;Gill Sans&quot;, &quot;Gill Sans MT&quot;, Calibri, sans-serif">NTHUSA</text></g><g class="caption"><text class="caption node" text-anchor="middle" alignment-baseline="central" x="-1578.003115234375" y="-1277.658145751953" fill="rgb(51, 51, 51)" font-size="50px" font-family="&quot;Gill Sans&quot;, &quot;Gill Sans MT&quot;, Calibri, sans-serif">NYMU</text></g><g class="caption"><text class="caption node" text-anchor="middle" alignment-baseline="central" x="116.71737686157226" y="-1919.9466687011718" fill="rgb(51, 51, 51)" font-size="50px" font-family="&quot;Gill Sans&quot;, &quot;Gill Sans MT&quot;, Calibri, sans-serif">NYMUSA</text></g><g class="caption"><text class="caption node" text-anchor="middle" alignment-baseline="central" x="28.8721808719635" y="-411.4937049102783" fill="rgb(51, 51, 51)" font-size="50px" font-family="&quot;Gill Sans&quot;, &quot;Gill Sans MT&quot;, Calibri, sans-serif"> Hsinchu</text><text class="caption node" text-anchor="middle" alignment-baseline="central" x="28.8721808719635" y="-361.4937049102783" fill="rgb(51, 51, 51)" font-size="50px" font-family="&quot;Gill Sans&quot;, &quot;Gill Sans MT&quot;, Calibri, sans-serif">Institute</text><text class="caption node" text-anchor="middle" alignment-baseline="central" x="28.8721808719635" y="-311.4937049102783" fill="rgb(51, 51, 51)" font-size="50px" font-family="&quot;Gill Sans&quot;, &quot;Gill Sans MT&quot;, Calibri, sans-serif">of Technology</text></g><g class="caption"><text class="caption node" text-anchor="middle" alignment-baseline="central" x="320.5539840316772" y="-815.5193164825439" fill="rgb(51, 51, 51)" font-size="50px" font-family="&quot;Gill Sans&quot;, &quot;Gill Sans MT&quot;, Calibri, sans-serif">Ministry</text><text class="caption node" text-anchor="middle" alignment-baseline="central" x="320.5539840316772" y="-765.5193164825439" fill="rgb(51, 51, 51)" font-size="50px" font-family="&quot;Gill Sans&quot;, &quot;Gill Sans MT&quot;, Calibri, sans-serif">of Education</text></g><g class="caption"><text class="caption node" text-anchor="middle" alignment-baseline="central" x="-1026.9895495605463" y="645.2597772979733" fill="rgb(51, 51, 51)" font-size="50px" font-family="&quot;Gill Sans&quot;, &quot;Gill Sans MT&quot;, Calibri, sans-serif">student</text><text class="caption node" text-anchor="middle" alignment-baseline="central" x="-1026.9895495605463" y="695.2597772979733" fill="rgb(51, 51, 51)" font-size="50px" font-family="&quot;Gill Sans&quot;, &quot;Gill Sans MT&quot;, Calibri, sans-serif">club-nctu</text></g><g class="caption"><text class="caption node" text-anchor="middle" alignment-baseline="central" x="620.0318988800051" y="-427.4213632631307" fill="rgb(51, 51, 51)" font-size="50px" font-family="&quot;Gill Sans&quot;, &quot;Gill Sans MT&quot;, Calibri, sans-serif">common</text><text class="caption node" text-anchor="middle" alignment-baseline="central" x="620.0318988800051" y="-377.4213632631307" fill="rgb(51, 51, 51)" font-size="50px" font-family="&quot;Gill Sans&quot;, &quot;Gill Sans MT&quot;, Calibri, sans-serif">people</text></g><g class="caption"><text class="caption node" text-anchor="middle" alignment-baseline="central" x="347.37359038353054" y="946.7009592437746" fill="rgb(51, 51, 51)" font-size="50px" font-family="&quot;Gill Sans&quot;, &quot;Gill Sans MT&quot;, Calibri, sans-serif">TWO-School</text><text class="caption node" text-anchor="middle" alignment-baseline="central" x="347.37359038353054" y="996.7009592437746" fill="rgb(51, 51, 51)" font-size="50px" font-family="&quot;Gill Sans&quot;, &quot;Gill Sans MT&quot;, Calibri, sans-serif">polling</text><text class="caption node" text-anchor="middle" alignment-baseline="central" x="347.37359038353054" y="1046.7009592437746" fill="rgb(51, 51, 51)" font-size="50px" font-family="&quot;Gill Sans&quot;, &quot;Gill Sans MT&quot;, Calibri, sans-serif">agency</text></g><g class="caption"><text class="caption node" text-anchor="middle" alignment-baseline="central" x="1177.2744042968748" y="694.9529345703122" fill="rgb(51, 51, 51)" font-size="50px" font-family="&quot;Gill Sans&quot;, &quot;Gill Sans MT&quot;, Calibri, sans-serif">sutdent</text><text class="caption node" text-anchor="middle" alignment-baseline="central" x="1177.2744042968748" y="744.9529345703122" fill="rgb(51, 51, 51)" font-size="50px" font-family="&quot;Gill Sans&quot;, &quot;Gill Sans MT&quot;, Calibri, sans-serif">club-nthu</text></g></g><g class="layer properties"/><g class="layer overlay"><circle class="node overlay" r="139.01496738029107" stroke="none" fill="rgba(255, 255, 255, 0)" cx="320.5539840316772" cy="121.69860456466674"/><circle class="node overlay" r="137.6179893132266" stroke="none" fill="rgba(255, 255, 255, 0)" cx="-234.99468811035155" cy="121.69860456466674"/><circle class="node overlay" r="97.34873742350791" stroke="none" fill="rgba(255, 255, 255, 0)" cx="-1912.2478076171874" cy="-436.3354681396484"/><circle class="node overlay" r="97.84328367370718" stroke="none" fill="rgba(255, 255, 255, 0)" cx="1956.1315710449217" cy="-541.5472888183593"/><circle class="node overlay" r="155.55464542613302" stroke="none" fill="rgba(255, 255, 255, 0)" cx="-1274.8588366699212" cy="-236.0720016479492"/><circle class="node overlay" r="157.0774351972905" stroke="none" fill="rgba(255, 255, 255, 0)" cx="1116.09447265625" cy="-236.0720016479492"/><circle class="node overlay" r="144.92312122195955" stroke="none" fill="rgba(255, 255, 255, 0)" cx="695.57541015625" cy="692.0266510772705"/><circle class="node overlay" r="124.03914665121759" stroke="none" fill="rgba(255, 255, 255, 0)" cx="-569.9161260986327" cy="692.0266510772705"/><circle class="node overlay" r="155.0631727868566" stroke="none" fill="rgba(255, 255, 255, 0)" cx="-1642.6932275390625" cy="240.1515379333496"/><circle class="node overlay" r="156.58575674315057" stroke="none" fill="rgba(255, 255, 255, 0)" cx="1510.3979089355469" cy="471.58808906555174"/><circle class="node overlay" r="125.2725447258139" stroke="none" fill="rgba(255, 255, 255, 0)" cx="-506.8092596435547" cy="-1277.658145751953"/><circle class="node overlay" r="124.78731318642535" stroke="none" fill="rgba(255, 255, 255, 0)" cx="802.0887255859375" cy="-1127.6051525878906"/><circle class="node overlay" r="99.06413533248075" stroke="none" fill="rgba(255, 255, 255, 0)" cx="-1578.003115234375" cy="-1277.658145751953"/><circle class="node overlay" r="126.0421133437902" stroke="none" fill="rgba(255, 255, 255, 0)" cx="116.71737686157226" cy="-1919.9466687011718"/><circle class="node overlay" r="183.10789839152176" stroke="none" fill="rgba(255, 255, 255, 0)" cx="28.8721808719635" cy="-361.4937049102783"/><circle class="node overlay" r="158.9789297395893" stroke="none" fill="rgba(255, 255, 255, 0)" cx="320.5539840316772" cy="-790.5193164825439"/><circle class="node overlay" r="129.2823141269639" stroke="none" fill="rgba(255, 255, 255, 0)" cx="-1026.9895495605463" cy="670.2597772979733"/><circle class="node overlay" r="140.5958218384206" stroke="none" fill="rgba(255, 255, 255, 0)" cx="620.0318988800051" cy="-402.4213632631307"/><circle class="node overlay" r="208.99265888941667" stroke="none" fill="rgba(255, 255, 255, 0)" cx="347.37359038353054" cy="996.7009592437746"/><circle class="node overlay" r="130.65280852332887" stroke="none" fill="rgba(255, 255, 255, 0)" cx="1177.2744042968748" cy="719.9529345703122"/><circle class="node ring" r="144.01496738029107" fill="none" stroke="rgba(255, 255, 255, 0)" stroke-width="10px" cx="320.5539840316772" cy="121.69860456466674"/><circle class="node ring" r="142.6179893132266" fill="none" stroke="rgba(255, 255, 255, 0)" stroke-width="10px" cx="-234.99468811035155" cy="121.69860456466674"/><circle class="node ring" r="102.34873742350791" fill="none" stroke="rgba(255, 255, 255, 0)" stroke-width="10px" cx="-1912.2478076171874" cy="-436.3354681396484"/><circle class="node ring" r="102.84328367370718" fill="none" stroke="rgba(255, 255, 255, 0)" stroke-width="10px" cx="1956.1315710449217" cy="-541.5472888183593"/><circle class="node ring" r="160.55464542613302" fill="none" stroke="rgba(255, 255, 255, 0)" stroke-width="10px" cx="-1274.8588366699212" cy="-236.0720016479492"/><circle class="node ring" r="162.0774351972905" fill="none" stroke="rgba(255, 255, 255, 0)" stroke-width="10px" cx="1116.09447265625" cy="-236.0720016479492"/><circle class="node ring" r="149.92312122195955" fill="none" stroke="rgba(255, 255, 255, 0)" stroke-width="10px" cx="695.57541015625" cy="692.0266510772705"/><circle class="node ring" r="129.0391466512176" fill="none" stroke="rgba(255, 255, 255, 0)" stroke-width="10px" cx="-569.9161260986327" cy="692.0266510772705"/><circle class="node ring" r="160.0631727868566" fill="none" stroke="rgba(255, 255, 255, 0)" stroke-width="10px" cx="-1642.6932275390625" cy="240.1515379333496"/><circle class="node ring" r="161.58575674315057" fill="none" stroke="rgba(255, 255, 255, 0)" stroke-width="10px" cx="1510.3979089355469" cy="471.58808906555174"/><circle class="node ring" r="130.2725447258139" fill="none" stroke="rgba(255, 255, 255, 0)" stroke-width="10px" cx="-506.8092596435547" cy="-1277.658145751953"/><circle class="node ring" r="129.78731318642537" fill="none" stroke="rgba(255, 255, 255, 0)" stroke-width="10px" cx="802.0887255859375" cy="-1127.6051525878906"/><circle class="node ring" r="104.06413533248075" fill="none" stroke="rgba(255, 255, 255, 0)" stroke-width="10px" cx="-1578.003115234375" cy="-1277.658145751953"/><circle class="node ring" r="131.04211334379022" fill="none" stroke="rgba(255, 255, 255, 0)" stroke-width="10px" cx="116.71737686157226" cy="-1919.9466687011718"/><circle class="node ring" r="188.10789839152176" fill="none" stroke="rgba(255, 255, 255, 0)" stroke-width="10px" cx="28.8721808719635" cy="-361.4937049102783"/><circle class="node ring" r="163.9789297395893" fill="none" stroke="rgba(255, 255, 255, 0)" stroke-width="10px" cx="320.5539840316772" cy="-790.5193164825439"/><circle class="node ring" r="134.2823141269639" fill="none" stroke="rgba(255, 255, 255, 0)" stroke-width="10px" cx="-1026.9895495605463" cy="670.2597772979733"/><circle class="node ring" r="145.5958218384206" fill="none" stroke="rgba(255, 255, 255, 0)" stroke-width="10px" cx="620.0318988800051" cy="-402.4213632631307"/><circle class="node ring" r="213.99265888941667" fill="none" stroke="rgba(255, 255, 255, 0)" stroke-width="10px" cx="347.37359038353054" cy="996.7009592437746"/><circle class="node ring" r="135.65280852332887" fill="none" stroke="rgba(255, 255, 255, 0)" stroke-width="10px" cx="1177.2744042968748" cy="719.9529345703122"/><path class="relationship overlay" fill="rgba(255, 255, 255, 0)" stroke="rgba(255, 255, 255, 0)" stroke-width="10px" transform="translate(-234.99468811035155,121.69860456466674) rotate(0)" d="M 147.4586228398647,-18.954189449218642 L 148.2646919259381,-10.994902255727208 A 1186.7131057067195 1186.7131057067195 0 0 1 373.90468157519666,-12.284504117179168 L 372.83212179065583,-0.3325329195655371 L 406.13412469701325,-13.408335090941595 L 375.69228121609797,-32.204456113201886 L 374.61972143155714,-20.252484915588255 A 1194.7131057067195 1194.7131057067195 0 0 0 147.4586228398647,-18.954189449218642"/><path class="relationship overlay" fill="rgba(255, 255, 255, 0)" stroke="rgba(255, 255, 255, 0)" stroke-width="10px" transform="translate(320.5539840316772,121.69860456466674) rotate(180)" d="M 148.8663728575642,-18.955038125587258 L 149.66496077139314,-10.994996835249228 A 1192.1315566474307 1192.1315566474307 0 0 1 375.2968517960221,-12.171249956508548 L 374.22352234180914,-0.21934785338207874 L 407.52636722243034,-13.293005446316135 L 377.0857342197104,-32.09108679505266 L 376.0124047654974,-20.139184691926197 A 1200.1315566474307 1200.1315566474307 0 0 0 148.8663728575642,-18.955038125587258"/><path class="relationship overlay" fill="rgba(255, 255, 255, 0)" stroke="rgba(255, 255, 255, 0)" stroke-width="10px" transform="translate(-1912.2478076171874,-436.3354681396484) rotate(17.442379350096544)" d="M 108.34873742350791 4 L 469.55474404275253 4 L 469.55474404275253 16 L 501.55474404275253 0 L 469.55474404275253 -16 L 469.55474404275253 -4 L 108.34873742350791 -4 Z"/><path class="relationship overlay" fill="rgba(255, 255, 255, 0)" stroke="rgba(255, 255, 255, 0)" stroke-width="10px" transform="translate(-1274.8588366699212,-236.0720016479492) rotate(18.98604205165838)" d="M 165.5198925117095,-18.963520135698364 L 166.2394032012993,-10.995941810537953 A 4240.498528704891 4240.498528704891 0 0 1 919.4164802495799,-11.851336022283453 L 918.3643636497299,0.10245210785839731 L 951.6439541299081,-13.03028779939751 L 921.1700079159965,-31.774316239186536 L 920.1178913161465,-19.820528109044687 A 4248.498528704891 4248.498528704891 0 0 0 165.5198925117095,-18.963520135698364"/><path class="relationship overlay" fill="rgba(255, 255, 255, 0)" stroke="rgba(255, 255, 255, 0)" stroke-width="10px" transform="translate(-234.99468811035155,121.69860456466674) rotate(-161.0139579483416)" d="M 147.4586228398647,-18.954189449218642 L 148.2646919259381,-10.994902255727208 A 3907.333583799892 3907.333583799892 0 0 1 901.6096748079916,-14.292783177598782 L 900.5051444458638,-2.3437241067288923 L 933.8420091176872,-15.33038856888153 L 903.4505587448712,-34.2078816290486 L 902.3460283827434,-22.25882255817871 A 3915.333583799892 3915.333583799892 0 0 0 147.4586228398647,-18.954189449218642"/><path class="relationship overlay" fill="rgba(255, 255, 255, 0)" stroke="rgba(255, 255, 255, 0)" stroke-width="10px" transform="translate(1956.1315710449217,-541.5472888183593) rotate(160.01645665138457)" d="M 108.84328367370718 4 L 693.7779657155774 4 L 693.7779657155774 16 L 725.7779657155774 0 L 693.7779657155774 -16 L 693.7779657155774 -4 L 108.84328367370718 -4 Z"/><path class="relationship overlay" fill="rgba(255, 255, 255, 0)" stroke="rgba(255, 255, 255, 0)" stroke-width="10px" transform="translate(1116.09447265625,-236.0720016479492) rotate(155.78558905379256)" d="M 167.0520403410289,-18.964177820265117 L 167.76504962382322,-10.99601506071702 A 2979.8377502490102 2979.8377502490102 0 0 1 690.6062113479045,-11.728914354909408 L 689.5702099834986,0.22628121743273155 L 722.8320666622856,-12.951309240607655 L 692.3328802885811,-31.654240308812973 L 691.2968789241752,-19.699044736470835 A 2987.8377502490102 2987.8377502490102 0 0 0 167.0520403410289,-18.964177820265117"/><path class="relationship overlay" fill="rgba(255, 255, 255, 0)" stroke="rgba(255, 255, 255, 0)" stroke-width="10px" transform="translate(320.5539840316772,121.69860456466674) rotate(-24.214410946207458)" d="M 148.8663728575642,-18.955038125587258 L 149.66496077139314,-10.994996835249228 A 2769.2100899199363 2769.2100899199363 0 0 1 672.6479261303703,-13.829355684003117 L 671.5795315610733,-1.8770114350996092 L 704.8769756505452,-14.964418248845705 L 674.4285837458651,-33.74992943217563 L 673.3601891765682,-21.797585183272123 A 2777.2100899199363 2777.2100899199363 0 0 0 148.8663728575642,-18.955038125587258"/><path class="relationship overlay" fill="rgba(255, 255, 255, 0)" stroke="rgba(255, 255, 255, 0)" stroke-width="10px" transform="translate(1116.09447265625,-236.0720016479492) rotate(114.37515539015054)" d="M 168.0774351972905 4 L 830.999540767775 4 L 830.999540767775 16 L 862.999540767775 0 L 830.999540767775 -16 L 830.999540767775 -4 L 168.0774351972905 -4 Z"/><path class="relationship overlay" fill="rgba(255, 255, 255, 0)" stroke="rgba(255, 255, 255, 0)" stroke-width="10px" transform="translate(-1274.8588366699212,-236.0720016479492) rotate(52.78130222777522)" d="M 166.55464542613302 4 L 998.4269980213608 4 L 998.4269980213608 16 L 1030.4269980213608 0 L 998.4269980213608 -16 L 998.4269980213608 -4 L 166.55464542613302 -4 Z"/><path class="relationship overlay" fill="rgba(255, 255, 255, 0)" stroke="rgba(255, 255, 255, 0)" stroke-width="10px" transform="translate(-1912.2478076171874,-436.3354681396484) rotate(68.27458138947354)" d="M 108.34873742350791 4 L 530.1499423289745 4 L 530.1499423289745 16 L 562.1499423289745 0 L 530.1499423289745 -16 L 530.1499423289745 -4 L 108.34873742350791 -4 Z"/><path class="relationship overlay" fill="rgba(255, 255, 255, 0)" stroke="rgba(255, 255, 255, 0)" stroke-width="10px" transform="translate(1956.1315710449217,-541.5472888183593) rotate(113.74731951102561)" d="M 108.84328367370718 4 L 907.2664427204497 4 L 907.2664427204497 16 L 939.2664427204497 0 L 907.2664427204497 -16 L 907.2664427204497 -4 L 108.84328367370718 -4 Z"/><path class="relationship overlay" fill="rgba(255, 255, 255, 0)" stroke="rgba(255, 255, 255, 0)" stroke-width="10px" transform="translate(-1912.2478076171874,-436.3354681396484) rotate(-30.90555437900345)" d="M 108.34873742350791 4 L 1469.7388593843561 4 L 1469.7388593843561 16 L 1501.7388593843561 0 L 1469.7388593843561 -16 L 1469.7388593843561 -4 L 108.34873742350791 -4 Z"/><path class="relationship overlay" fill="rgba(255, 255, 255, 0)" stroke="rgba(255, 255, 255, 0)" stroke-width="10px" transform="translate(1956.1315710449217,-541.5472888183593) rotate(-153.07716200702177)" d="M 108.84328367370718 4 L 1126.538267508469 4 L 1126.538267508469 16 L 1158.538267508469 0 L 1126.538267508469 -16 L 1126.538267508469 -4 L 108.84328367370718 -4 Z"/><path class="relationship overlay" fill="rgba(255, 255, 255, 0)" stroke="rgba(255, 255, 255, 0)" stroke-width="10px" transform="translate(-1912.2478076171874,-436.3354681396484) rotate(-68.33282872642397)" d="M 108.34873742350791 4 L 763.222207351876 4 L 763.222207351876 16 L 795.222207351876 0 L 763.222207351876 -16 L 763.222207351876 -4 L 108.34873742350791 -4 Z"/><path class="relationship overlay" fill="rgba(255, 255, 255, 0)" stroke="rgba(255, 255, 255, 0)" stroke-width="10px" transform="translate(-1578.003115234375,-1277.658145751953) rotate(-20.756396487736957)" d="M 110.06413533248075 4 L 1643.3077681752884 4 L 1643.3077681752884 16 L 1675.3077681752884 0 L 1643.3077681752884 -16 L 1643.3077681752884 -4 L 110.06413533248075 -4 Z"/><path class="relationship overlay" fill="rgba(255, 255, 255, 0)" stroke="rgba(255, 255, 255, 0)" stroke-width="10px" transform="translate(116.71737686157226,-1919.9466687011718) rotate(134.15082530782541)" d="M 135.78506913689014,-18.946129663395897 L 136.6589649843481,-10.99400378110532 A 2797.564846093587 2797.564846093587 0 0 1 727.3607230190485,-13.169745050176143 L 726.1377842020269,-1.2322235046533159 L 759.60176007945,-13.887748719959426 L 729.3989543807512,-33.06561429271419 L 728.1760155637296,-21.128092747191364 A 2805.564846093587 2805.564846093587 0 0 0 135.78506913689014,-18.946129663395897"/><path class="relationship overlay" fill="rgba(255, 255, 255, 0)" stroke="rgba(255, 255, 255, 0)" stroke-width="10px" transform="translate(-506.8092596435547,-1277.658145751953) rotate(-45.849174692174586)" d="M 135.00842091740554,-18.945519983299583 L 135.8872320041262,-10.993935796871266 A 2786.5537692737485 2786.5537692737485 0 0 1 726.5981383668452,-13.286000238126796 L 725.3725207617806,-1.3487534246376978 L 758.8393357378377,-13.996768895784184 L 728.6408343752862,-33.18141159394196 L 727.4152167702216,-21.244164780452863 A 2794.5537692737485 2794.5537692737485 0 0 0 135.00842091740554,-18.945519983299583"/><path class="relationship overlay" fill="rgba(255, 255, 255, 0)" stroke="rgba(255, 255, 255, 0)" stroke-width="10px" transform="translate(802.0887255859375,-1127.6051525878906) rotate(-130.85963738491603)" d="M 135.78731318642537 4 L 878.5928248903966 4 L 878.5928248903966 16 L 910.5928248903966 0 L 878.5928248903966 -16 L 878.5928248903966 -4 L 135.78731318642537 -4 Z"/><path class="relationship overlay" fill="rgba(255, 255, 255, 0)" stroke="rgba(255, 255, 255, 0)" stroke-width="10px" transform="translate(28.8721808719635,-361.4937049102783) rotate(58.88247894461674)" d="M 194.10789839152176 4 L 382.39010190083525 4 L 382.39010190083525 16 L 414.39010190083525 0 L 382.39010190083525 -16 L 382.39010190083525 -4 L 194.10789839152176 -4 Z"/><path class="relationship overlay" fill="rgba(255, 255, 255, 0)" stroke="rgba(255, 255, 255, 0)" stroke-width="10px" transform="translate(28.8721808719635,-361.4937049102783) rotate(118.63854727702214)" d="M 194.10789839152176 4 L 369.927678622015 4 L 369.927678622015 16 L 401.927678622015 0 L 369.927678622015 -16 L 369.927678622015 -4 L 194.10789839152176 -4 Z"/><path class="relationship overlay" fill="rgba(255, 255, 255, 0)" stroke="rgba(255, 255, 255, 0)" stroke-width="10px" transform="translate(-1912.2478076171874,-436.3354681396484) rotate(2.2080006548775115)" d="M 108.34873742350791 4 L 1716.454352666447 4 L 1716.454352666447 16 L 1748.454352666447 0 L 1716.454352666447 -16 L 1716.454352666447 -4 L 108.34873742350791 -4 Z"/><path class="relationship overlay" fill="rgba(255, 255, 255, 0)" stroke="rgba(255, 255, 255, 0)" stroke-width="10px" transform="translate(1956.1315710449217,-541.5472888183593) rotate(174.66265281473926)" d="M 108.84328367370718 4 L 1709.5439427431352 4 L 1709.5439427431352 16 L 1741.5439427431352 0 L 1709.5439427431352 -16 L 1709.5439427431352 -4 L 108.84328367370718 -4 Z"/><path class="relationship overlay" fill="rgba(255, 255, 255, 0)" stroke="rgba(255, 255, 255, 0)" stroke-width="10px" transform="translate(802.0887255859375,-1127.6051525878906) rotate(-173.46012158499846)" d="M 134.51868443795584,-18.945130231012477 L 135.40062316590863,-10.993892334927551 A 4713.127733244539 4713.127733244539 0 0 1 1149.7081700348153,-13.685105306654114 L 1148.4485700235643,-1.751396419151595 L 1181.951260405239,-14.304074905819093 L 1151.8075033869002,-33.57462011915831 L 1150.5479033756492,-21.640911231655792 A 4721.127733244539 4721.127733244539 0 0 0 134.51868443795584,-18.945130231012477"/><path class="relationship overlay" fill="rgba(255, 255, 255, 0)" stroke="rgba(255, 255, 255, 0)" stroke-width="10px" transform="translate(-506.8092596435547,-1277.658145751953) rotate(6.539878415001527)" d="M 135.00842091740554,-18.945519983299583 L 135.8872320041262,-10.993935796871266 A 4726.491238708461 4726.491238708461 0 0 1 1150.1877224897335,-13.59733240977642 L 1148.930750619274,-1.663346415278454 L 1182.4306757652146,-14.22340275338384 L 1152.2826756071659,-33.48730906727303 L 1151.0257037367064,-21.553323072775065 A 4734.491238708461 4734.491238708461 0 0 0 135.00842091740554,-18.945519983299583"/><path class="relationship overlay" fill="rgba(255, 255, 255, 0)" stroke="rgba(255, 255, 255, 0)" stroke-width="10px" transform="translate(-1274.8588366699212,-236.0720016479492) rotate(-53.595508453966275)" d="M 166.55464542613302 4 L 1125.8688109072664 4 L 1125.8688109072664 16 L 1157.8688109072664 0 L 1125.8688109072664 -16 L 1125.8688109072664 -4 L 166.55464542613302 -4 Z"/><path class="relationship overlay" fill="rgba(255, 255, 255, 0)" stroke="rgba(255, 255, 255, 0)" stroke-width="10px" transform="translate(1116.09447265625,-236.0720016479492) rotate(-109.4027080400511)" d="M 168.0774351972905 4 L 777.4274605121691 4 L 777.4274605121691 16 L 809.4274605121691 0 L 777.4274605121691 -16 L 777.4274605121691 -4 L 168.0774351972905 -4 Z"/><path class="relationship overlay" fill="rgba(255, 255, 255, 0)" stroke="rgba(255, 255, 255, 0)" stroke-width="10px" transform="translate(-1578.003115234375,-1277.658145751953) rotate(29.689747407676396)" d="M 110.06413533248075 4 L 1623.5962671169987 4 L 1623.5962671169987 16 L 1655.5962671169987 0 L 1623.5962671169987 -16 L 1623.5962671169987 -4 L 110.06413533248075 -4 Z"/><path class="relationship overlay" fill="rgba(255, 255, 255, 0)" stroke="rgba(255, 255, 255, 0)" stroke-width="10px" transform="translate(320.5539840316772,-790.5193164825439) rotate(8.655273495303495)" d="M 169.9789297395893 4 L 1513.5753796939675 4 L 1513.5753796939675 16 L 1545.5753796939675 0 L 1513.5753796939675 -16 L 1513.5753796939675 -4 L 169.9789297395893 -4 Z"/><path class="relationship overlay" fill="rgba(255, 255, 255, 0)" stroke="rgba(255, 255, 255, 0)" stroke-width="10px" transform="translate(320.5539840316772,-790.5193164825439) rotate(-165.60928058342205)" d="M 169.9789297395893 4 L 1817.9928276549467 4 L 1817.9928276549467 16 L 1849.9928276549467 0 L 1817.9928276549467 -16 L 1817.9928276549467 -4 L 169.9789297395893 -4 Z"/><path class="relationship overlay" fill="rgba(255, 255, 255, 0)" stroke="rgba(255, 255, 255, 0)" stroke-width="10px" transform="translate(320.5539840316772,-790.5193164825439) rotate(170.986412961517)" d="M 169.9789297395893 4 L 2120.37018345484 4 L 2120.37018345484 16 L 2152.37018345484 0 L 2120.37018345484 -16 L 2120.37018345484 -4 L 169.9789297395893 -4 Z"/><path class="relationship overlay" fill="rgba(255, 255, 255, 0)" stroke="rgba(255, 255, 255, 0)" stroke-width="10px" transform="translate(320.5539840316772,-790.5193164825439) rotate(124.21062318795379)" d="M 169.9789297395893 4 L 292.68035290129467 4 L 292.68035290129467 16 L 324.68035290129467 0 L 292.68035290129467 -16 L 292.68035290129467 -4 L 169.9789297395893 -4 Z"/><path class="relationship overlay" fill="rgba(255, 255, 255, 0)" stroke="rgba(255, 255, 255, 0)" stroke-width="10px" transform="translate(-1642.6932275390625,240.1515379333496) rotate(-4.809909408316584)" d="M 166.0631727868566 4 L 1232.0554603322926 4 L 1232.0554603322926 16 L 1264.0554603322926 0 L 1232.0554603322926 -16 L 1232.0554603322926 -4 L 166.0631727868566 -4 Z"/><path class="relationship overlay" fill="rgba(255, 255, 255, 0)" stroke="rgba(255, 255, 255, 0)" stroke-width="10px" transform="translate(1510.3979089355469,471.58808906555174) rotate(-163.613323277302)" d="M 167.58575674315057 4 L 1058.2072776205555 4 L 1058.2072776205555 16 L 1090.2072776205555 0 L 1058.2072776205555 -16 L 1058.2072776205555 -4 L 167.58575674315057 -4 Z"/><path class="relationship overlay" fill="rgba(255, 255, 255, 0)" stroke="rgba(255, 255, 255, 0)" stroke-width="10px" transform="translate(-1274.8588366699212,-236.0720016479492) rotate(74.7044130398025)" d="M 166.55464542613302 4 L 767.3327544087585 4 L 767.3327544087585 16 L 799.3327544087585 0 L 767.3327544087585 -16 L 767.3327544087585 -4 L 166.55464542613302 -4 Z"/><path class="relationship overlay" fill="rgba(255, 255, 255, 0)" stroke="rgba(255, 255, 255, 0)" stroke-width="10px" transform="translate(-569.9161260986327,692.0266510772705) rotate(-88.16492431705346)" d="M 133.76350866723436,-18.94452103695871 L 134.6503136028345,-10.993824400424579 A 7651.197234739298 7651.197234739298 0 0 1 1802.9637454718586,-14.061098566219334 L 1801.6774001230267,-2.130242953836019 L 1835.2081422211581,-14.607796173461947 L 1805.1076543865786,-33.94585792019153 L 1803.8213090377467,-22.01500230780821 A 7659.197234739298 7659.197234739298 0 0 0 133.76350866723436,-18.94452103695871"/><path class="relationship overlay" fill="rgba(255, 255, 255, 0)" stroke="rgba(255, 255, 255, 0)" stroke-width="10px" transform="translate(-506.8092596435547,-1277.658145751953) rotate(91.83507568294657)" d="M 135.00842091740554,-18.945519983299583 L 135.8872320041262,-10.993935796871266 A 7711.262288735503 7711.262288735503 0 0 1 1804.180246090681,-13.81134832828895 L 1802.9023227608643,-1.8795876885882805 L 1836.4242489064884,-14.380806328677899 L 1806.3101183070423,-33.6976160611234 L 1805.0321949772256,-21.765855421422728 A 7719.262288735503 7719.262288735503 0 0 0 135.00842091740554,-18.945519983299583"/><path class="relationship overlay" fill="rgba(255, 255, 255, 0)" stroke="rgba(255, 255, 255, 0)" stroke-width="10px" transform="translate(620.0318988800051,-402.4213632631307) rotate(-127.65577048949496)" d="M 151.5958218384206 4 L 288.23229287266395 4 L 288.23229287266395 16 L 320.23229287266395 0 L 288.23229287266395 -16 L 288.23229287266395 -4 L 151.5958218384206 -4 Z"/><path class="relationship overlay" fill="rgba(255, 255, 255, 0)" stroke="rgba(255, 255, 255, 0)" stroke-width="10px" transform="translate(347.37359038353054,996.7009592437746) rotate(-78.97251931492117)" d="M 219.99265888941667 4 L 1241.8465047848897 4 L 1241.8465047848897 16 L 1273.8465047848897 0 L 1241.8465047848897 -16 L 1241.8465047848897 -4 L 219.99265888941667 -4 Z"/><path class="relationship overlay" fill="rgba(255, 255, 255, 0)" stroke="rgba(255, 255, 255, 0)" stroke-width="10px" transform="translate(-234.99468811035155,121.69860456466674) rotate(120.42330911698119)" d="M 148.6179893132266 4 L 494.35820007994425 4 L 494.35820007994425 16 L 526.3582000799443 0 L 494.35820007994425 -16 L 494.35820007994425 -4 L 148.6179893132266 -4 Z"/><path class="relationship overlay" fill="rgba(255, 255, 255, 0)" stroke="rgba(255, 255, 255, 0)" stroke-width="10px" transform="translate(320.5539840316772,121.69860456466674) rotate(56.67292451972044)" d="M 150.01496738029107 4 L 494.6566548419016 4 L 494.6566548419016 16 L 526.6566548419016 0 L 494.6566548419016 -16 L 494.6566548419016 -4 L 150.01496738029107 -4 Z"/><path class="relationship overlay" fill="rgba(255, 255, 255, 0)" stroke="rgba(255, 255, 255, 0)" stroke-width="10px" transform="translate(1116.09447265625,-236.0720016479492) rotate(86.3384025071031)" d="M 168.0774351972905 4 L 784.3277041733973 4 L 784.3277041733973 16 L 816.3277041733973 0 L 784.3277041733973 -16 L 784.3277041733973 -4 L 168.0774351972905 -4 Z"/></g></svg>